# File created by Blade
# Date/Time:  Wed Apr 08 17:19:54 2015
# Frame Rate: 120.000 fps
#------------------------------------------------------
:FULLY-SPECIFIED
:DEGREES
1434
root 6.459633 36.551129 1.101264 165.540850 -62.377610 -160.584937
Spine 7.596213 0.698076 3.490581
Head 6.400249 12.687342 11.798859
LeftShoulder -7.559871 14.137349 16.738997
LeftArm 15.796543 22.437948 -77.348799
LeftForeArm 21.187673 -0.000000 20.908629
LeftHand -11.355589 -0.000000 -17.135350
LeftHandThumb1 -26.253704 0.000000 33.147579
RightShoulder -31.515522 -47.179181 20.589950
RightArm 53.270412 -18.769883 59.564595
RightForeArm 10.536113 -0.000000 3.729657
RightHand -4.293061 0.000000 11.772789
RightHandThumb1 -24.326973 -0.000000 -32.862282
LeftUpLeg 2.805965 18.290342 1.061439
LeftLeg 6.669676 -0.000000 -0.000000
LeftFoot -14.658905 5.716047 -7.181792
LeftToeBase 6.684061 -0.000000 -0.000000
RightUpLeg -24.776463 -9.744764 -8.626141
RightLeg 134.513800 -0.000000 -0.000000
RightFoot 37.983827 5.258356 20.630731
RightToeBase 12.557396 -0.000000 -0.000000
1435
root 6.447708 36.550918 1.087845 165.253006 -62.589182 -160.640599
Spine 7.612874 0.837539 3.461906
Head 6.543611 12.750462 11.703053
LeftShoulder -7.617795 14.166865 16.695732
LeftArm 15.825918 22.344847 -77.326110
LeftForeArm 21.133937 -0.000000 20.933897
LeftHand -11.294357 -0.000000 -17.011499
LeftHandThumb1 -26.253704 0.000000 33.147579
RightShoulder -31.325133 -47.078539 20.271123
RightArm 53.363006 -18.641319 59.675228
RightForeArm 10.698321 -0.000000 3.932754
RightHand -4.379246 -0.000000 11.444086
RightHandThumb1 -24.326973 -0.000000 -32.862282
LeftUpLeg 3.192382 18.368711 1.142716
LeftLeg 6.625238 -0.000000 -0.000000
LeftFoot -14.604119 5.437621 -7.204701
LeftToeBase 6.750893 -0.000000 -0.000000
RightUpLeg -25.686729 -9.960500 -8.097791
RightLeg 133.807161 -0.000000 -0.000000
RightFoot 37.433174 4.678480 21.119814
RightToeBase 12.950346 -0.000000 -0.000000
1436
root 6.438026 36.548874 1.082770 164.942250 -62.696902 -160.709906
Spine 7.728661 1.055454 3.496324
Head 6.596098 12.838482 11.515566
LeftShoulder -7.696628 14.172267 16.584261
LeftArm 15.834313 22.204813 -77.317488
LeftForeArm 21.131724 -0.000000 20.982680
LeftHand -11.322992 -0.000000 -17.167528
LeftHandThumb1 -26.253704 0.000000 33.147579
RightShoulder -31.151680 -46.952530 19.915520
RightArm 53.495854 -18.496600 59.799597
RightForeArm 10.778310 -0.000000 4.125722
RightHand -4.313678 -0.000000 11.185562
RightHandThumb1 -24.326973 -0.000000 -32.862282
LeftUpLeg 3.673552 18.197509 1.193378
LeftLeg 6.454475 -0.000000 -0.000000
LeftFoot -14.566295 5.550968 -7.245392
LeftToeBase 6.858219 -0.000000 -0.000000
RightUpLeg -26.600932 -10.005135 -7.546313
RightLeg 133.177586 -0.000000 -0.000000
RightFoot 36.924809 4.262229 21.500684
RightToeBase 13.488510 -0.000000 -0.000000
1437
root 6.439237 36.550622 1.061653 164.692069 -63.031518 -160.665425
Spine 7.635373 1.069527 3.435836
Head 6.692894 12.896544 11.425981
LeftShoulder -7.795344 14.226925 16.492996
LeftArm 15.826304 21.908195 -77.327316
LeftForeArm 21.318692 -0.000000 21.066356
LeftHand -11.319391 -0.000000 -17.135815
LeftHandThumb1 -26.253704 0.000000 33.147579
RightShoulder -31.091287 -46.835864 19.766602
RightArm 53.639159 -18.361879 59.855574
RightForeArm 10.865466 -0.000000 4.356987
RightHand -4.355822 -0.000000 10.684563
RightHandThumb1 -24.326973 -0.000000 -32.862282
LeftUpLeg 3.868685 17.883157 1.216593
LeftLeg 6.441975 -0.000000 -0.000000
LeftFoot -14.546206 5.545672 -7.326635
LeftToeBase 6.912841 -0.000000 -0.000000
RightUpLeg -27.585141 -10.329352 -6.867400
RightLeg 132.587854 -0.000000 -0.000000
RightFoot 36.343640 3.867387 21.656981
RightToeBase 13.455760 -0.000000 -0.000000
1438
root 6.440113 36.549055 1.047764 164.360384 -63.204232 -160.588603
Spine 7.655396 1.215720 3.490412
Head 6.708192 12.982736 11.239609
LeftShoulder -7.855207 14.247414 16.367714
LeftArm 15.824241 21.732809 -77.299342
LeftForeArm 21.390765 -0.000000 21.088955
LeftHand -11.237512 -0.000000 -17.021944
LeftHandThumb1 -26.253704 0.000000 33.147579
RightShoulder -31.027845 -46.692012 19.526299
RightArm 53.800972 -18.243988 59.911683
RightForeArm 10.701111 -0.000000 4.602332
RightHand -4.397852 -0.000000 10.348330
RightHandThumb1 -24.326973 -0.000000 -32.862282
LeftUpLeg 4.139940 17.653698 1.289696
LeftLeg 6.415947 -0.000000 -0.000000
LeftFoot -14.571884 5.631792 -7.348487
LeftToeBase 6.957596 -0.000000 -0.000000
RightUpLeg -28.545606 -10.399294 -6.173428
RightLeg 132.102524 -0.000000 -0.000000
RightFoot 35.396755 3.198732 22.523235
RightToeBase 14.442102 -0.000000 -0.000000
1439
root 6.443233 36.548905 1.027075 164.036765 -63.478620 -160.485867
Spine 7.626982 1.235087 3.471993
Head 6.765225 13.037179 11.102302
LeftShoulder -7.952885 14.310016 16.254128
LeftArm 15.829806 21.528947 -77.267408
LeftForeArm 21.471646 -0.000000 21.150781
LeftHand -11.173719 -0.000000 -17.084833
LeftHandThumb1 -26.253704 0.000000 33.147579
RightShoulder -30.897872 -46.549725 19.297453
RightArm 53.928701 -18.156077 59.948040
RightForeArm 10.628994 0.000000 4.851910
RightHand -4.314283 -0.000000 9.859125
RightHandThumb1 -24.326973 -0.000000 -32.862282
LeftUpLeg 4.355986 17.520004 1.377981
LeftLeg 6.420219 -0.000000 -0.000000
LeftFoot -14.585150 5.483391 -7.411954
LeftToeBase 7.044918 -0.000000 -0.000000
RightUpLeg -29.450376 -10.581460 -5.436541
RightLeg 131.679168 -0.000000 -0.000000
RightFoot 34.296860 3.158211 22.454446
RightToeBase 14.049257 -0.000000 -0.000000
1440
root 6.454839 36.547299 1.015350 163.800065 -63.649861 -160.510940
Spine 7.696170 1.366089 3.430946
Head 6.753265 13.111339 10.961796
LeftShoulder -8.008080 14.291926 16.153275
LeftArm 15.772029 21.295026 -77.270626
LeftForeArm 21.501337 -0.000000 21.233380
LeftHand -11.181001 -0.000000 -17.088527
LeftHandThumb1 -26.253704 0.000000 33.147579
RightShoulder -30.740098 -46.433214 19.028336
RightArm 54.074025 -18.029813 60.051352
RightForeArm 10.601297 -0.000000 5.155384
RightHand -4.207120 -0.000000 8.922247
RightHandThumb1 -24.326973 -0.000000 -32.862282
LeftUpLeg 4.611554 17.508578 1.428552
LeftLeg 6.385300 -0.000000 -0.000000
LeftFoot -14.546642 5.394165 -7.399544
LeftToeBase 7.006643 -0.000000 -0.000000
RightUpLeg -30.316738 -10.534836 -4.847484
RightLeg 131.372867 -0.000000 -0.000000
RightFoot 33.058485 3.194849 23.217729
RightToeBase 12.864069 -0.000000 -0.000000
